<svg width="866" height="745" viewBox="0 0 866 745" fill="none" xmlns="http://www.w3.org/2000/svg">
<path d="M623.5 43.0015C575.315 21.7107 544.681 12.7273 492.5 5.50141C438.343 -1.99802 403.701 -1.66778 349.5 5.50156C342.518 6.42515 334.651 7.8816 326.546 9.61719C317.241 11.6095 319.362 25.5858 328.872 25.9035C337.242 26.1832 345.344 26.7161 352.5 27.613C398.783 33.4138 439.279 40.928 482.741 57.8633C527.097 75.1469 594.513 108.894 610.844 117.147C613.146 118.31 615.85 118.311 618.06 116.984C626.393 111.979 645.439 98.7017 631.5 89.0016C618.293 79.8107 602.515 68.0369 595.793 62.9842C593.718 61.4242 591.033 60.9648 588.553 61.7345C583.377 63.3414 575.455 65.7496 580 64.0016C586.5 61.5016 605.236 73.9412 648.5 89.0016C684.64 101.582 679.738 107.726 712.5 127.502C747.972 148.913 785.907 179.889 793.236 185.951C794.085 186.653 794.753 187.511 795.243 188.497L833.954 266.407C833.985 266.469 834.02 266.528 834.06 266.585C834.969 267.873 836.83 266.893 836.233 265.433C828.752 247.104 810.995 206.835 790.863 184C764.527 154.126 749.837 121.036 717 98.5015C678.384 72.0015 666.5 62.0015 623.5 43.0015Z" fill="url(#paint0_linear_61_8712)"/>
<path d="M232.5 701.998C280.685 723.289 311.319 732.273 363.5 739.499C417.657 746.998 452.299 746.668 506.5 739.498C513.482 738.575 521.349 737.118 529.454 735.383C538.759 733.39 536.638 719.414 527.128 719.096C518.758 718.817 510.656 718.284 503.5 717.387C457.217 711.586 416.721 704.072 373.259 687.137C333.874 671.79 276.309 643.464 252.467 631.529C247.291 628.938 241.418 632.544 242.342 638.259C243.802 647.283 247.628 659.13 257.5 666C262.194 669.267 269.312 673.154 277.192 677.084C278.801 677.886 277.677 680.353 276 680.998C269.5 683.498 250.764 671.059 207.5 655.998C171.36 643.418 176.262 637.274 143.5 617.498C108.028 596.087 70.0931 565.111 62.7643 559.049C61.9154 558.347 61.247 557.489 60.7567 556.503L22.0461 478.593C22.0154 478.531 21.98 478.472 21.9402 478.415C21.0306 477.127 19.1705 478.107 19.7665 479.567C27.2477 497.896 45.0054 538.165 65.1367 561C91.4733 590.874 106.163 623.964 139 646.499C177.616 672.998 189.5 682.998 232.5 701.998Z" fill="url(#paint1_linear_61_8712)"/>
<path d="M126.362 142.501C223.475 72.0831 406.482 107.304 454.497 127.133C459.69 129.278 459.487 135.513 454.625 138.329C410.146 164.09 233.247 272.759 210.248 384.097C181.441 523.547 321 732.5 321 732.5C321 732.5 288.752 725.532 248.5 712.5C151.868 681.215 74.3627 594 39.8626 531.501C-37.0907 392.093 0.374039 233.856 126.362 142.501Z" fill="url(#paint2_linear_61_8712)"/>
<path d="M126.362 142.501C223.475 72.0831 406.482 107.304 454.497 127.133C459.69 129.278 459.487 135.513 454.625 138.329C410.146 164.09 233.247 272.759 210.248 384.097C181.441 523.547 321 732.5 321 732.5C321 732.5 288.752 725.532 248.5 712.5C151.868 681.215 74.3627 594 39.8626 531.501C-37.0907 392.093 0.374039 233.856 126.362 142.501Z" fill="url(#paint3_linear_61_8712)"/>
<path d="M739.247 612.596C642.135 683.014 459.128 647.793 411.113 627.963C405.919 625.819 406.123 619.584 410.985 616.768C455.464 591.007 632.363 482.338 655.362 371C684.169 231.55 547 15.5 547 15.5C547 15.5 575 22.5 613.5 36C709.349 69.6093 791.247 161.096 825.747 223.596C902.701 363.003 865.236 521.24 739.247 612.596Z" fill="url(#paint4_linear_61_8712)"/>
<path d="M415.893 506.735L542.569 447.663L545.91 312.181L454.453 251.062L326.398 303.199L324.436 445.616L415.893 506.735Z" fill="#E3C819"/>
<path d="M489.774 412.381L542.569 447.663L545.91 312.181L454.453 251.062L326.398 303.199L424.091 368.486L489.774 412.381Z" fill="#FFE11F"/>
<path d="M429.911 372.375L412.526 417.286L385.13 486.177L324.02 445.338L326.398 303.199L424.091 368.485L429.911 372.375Z" fill="#D4BB18"/>
<path d="M429.911 372.375L441.216 307.765L454.175 251.477L326.398 303.199L424.091 368.486L429.911 372.375Z" fill="#FFEA65"/>
<defs>
<linearGradient id="paint0_linear_61_8712" x1="549.5" y1="3.58109e-06" x2="-360.5" y2="-166.5" gradientUnits="userSpaceOnUse">
<stop stop-color="#1A7068"/>
<stop offset="1" stop-color="#32D6C7"/>
</linearGradient>
<linearGradient id="paint1_linear_61_8712" x1="306.5" y1="470" x2="1259.5" y2="2238" gradientUnits="userSpaceOnUse">
<stop stop-color="#1A7068"/>
<stop offset="1" stop-color="#32D6C8"/>
</linearGradient>
<linearGradient id="paint2_linear_61_8712" x1="240.5" y1="453" x2="298.5" y2="-681.5" gradientUnits="userSpaceOnUse">
<stop stop-color="#1CCCE3"/>
<stop offset="1" stop-color="#10717D"/>
</linearGradient>
<linearGradient id="paint3_linear_61_8712" x1="240.5" y1="453" x2="298.5" y2="-681.5" gradientUnits="userSpaceOnUse">
<stop stop-color="#1CCCE3"/>
<stop offset="1" stop-color="#10717D"/>
</linearGradient>
<linearGradient id="paint4_linear_61_8712" x1="662" y1="290.5" x2="620.5" y2="1187" gradientUnits="userSpaceOnUse">
<stop stop-color="#1CCCE3"/>
<stop offset="1" stop-color="#10717D"/>
</linearGradient>
</defs>
</svg>
